<svg
          xmlns="http://www.w3.org/2000/svg"
          width="32"
          height="32"
          viewBox="0 0 32 32"
          fill="none"
        >
          <path
            d="M17.0182 24.0853C19.0728 23.8239 20.9508 22.7899 22.2705 21.1935C23.5901 19.5971 24.2524 17.5582 24.1227 15.491C23.993 13.4239 23.0811 11.4837 21.5722 10.0648C20.0634 8.64585 18.0708 7.85471 15.9996 7.85215C13.9259 7.8506 11.9296 8.63981 10.4175 10.0589C8.90538 11.4781 7.99127 13.4204 7.86141 15.4901C7.73156 17.5597 8.39572 19.601 9.71858 21.1981C11.0414 22.7951 12.9234 23.8276 14.9811 24.0853V18.0373H12.9441V16.0003H14.9811V14.3157C14.9811 12.9539 15.1237 12.4599 15.3885 11.9619C15.6494 11.4691 16.0526 11.0663 16.5456 10.8059C16.9346 10.5971 17.4184 10.4718 18.2638 10.4178C18.5989 10.3964 19.0328 10.4229 19.5655 10.4993V12.4345H19.0552C18.1212 12.4345 17.7352 12.4783 17.505 12.6015C17.3677 12.6721 17.2558 12.784 17.1852 12.9213C17.063 13.1515 17.0182 13.3796 17.0182 14.3146V16.0003H19.5645L19.0552 18.0373H17.0182V24.0853ZM15.9996 26.1855C10.3744 26.1855 5.81445 21.6256 5.81445 16.0003C5.81445 10.375 10.3744 5.81511 15.9996 5.81511C21.6249 5.81511 26.1848 10.375 26.1848 16.0003C26.1848 21.6256 21.6249 26.1855 15.9996 26.1855Z"
            fill="currentColor"
          ></path>
        </svg>