<svg xmlns="http://www.w3.org/2000/svg" width="32" height="32" viewBox="0 0 32 32" fill="none">
<path d="M15.9996 12.9447C15.1893 12.9447 14.4121 13.2667 13.839 13.8397C13.266 14.4127 12.9441 15.1899 12.9441 16.0003C12.9441 16.8107 13.266 17.5879 13.839 18.1609C14.4121 18.7339 15.1893 19.0559 15.9996 19.0559C16.81 19.0559 17.5872 18.7339 18.1602 18.1609C18.7333 17.5879 19.0552 16.8107 19.0552 16.0003C19.0552 15.1899 18.7333 14.4127 18.1602 13.8397C17.5872 13.2667 16.81 12.9447 15.9996 12.9447ZM15.9996 10.9077C17.3503 10.9077 18.6456 11.4442 19.6006 12.3993C20.5557 13.3543 21.0922 14.6497 21.0922 16.0003C21.0922 17.3509 20.5557 18.6463 19.6006 19.6013C18.6456 20.5563 17.3503 21.0929 15.9996 21.0929C14.649 21.0929 13.3537 20.5563 12.3986 19.6013C11.4436 18.6463 10.907 17.3509 10.907 16.0003C10.907 14.6497 11.4436 13.3543 12.3986 12.3993C13.3537 11.4442 14.649 10.9077 15.9996 10.9077ZM22.62 10.6531C22.62 10.9907 22.4859 11.3146 22.2471 11.5533C22.0084 11.7921 21.6845 11.9262 21.3469 11.9262C21.0092 11.9262 20.6854 11.7921 20.4466 11.5533C20.2078 11.3146 20.0737 10.9907 20.0737 10.6531C20.0737 10.3154 20.2078 9.99158 20.4466 9.75282C20.6854 9.51406 21.0092 9.37992 21.3469 9.37992C21.6845 9.37992 22.0084 9.51406 22.2471 9.75282C22.4859 9.99158 22.62 10.3154 22.62 10.6531ZM15.9996 7.85215C13.4798 7.85215 13.0683 7.85928 11.896 7.91122C11.0975 7.94891 10.5618 8.05585 10.0647 8.24937C9.62269 8.42048 9.3039 8.6252 8.96473 8.96539C8.64594 9.27339 8.40083 9.64941 8.24769 10.0654C8.05418 10.5645 7.94723 11.0992 7.91056 11.8967C7.8576 13.0211 7.85149 13.4143 7.85149 16.0003C7.85149 18.5201 7.85862 18.9316 7.91056 20.1039C7.94825 20.9014 8.05519 21.4382 8.24769 21.9342C8.42084 22.3772 8.62455 22.696 8.96269 23.0342C9.30593 23.3764 9.62473 23.5811 10.0627 23.7502C10.5658 23.9447 11.1016 24.0527 11.896 24.0894C13.0205 24.1423 13.4136 24.1484 15.9996 24.1484C18.5195 24.1484 18.9309 24.1413 20.1032 24.0894C20.8997 24.0517 21.4365 23.9447 21.9335 23.7522C22.3745 23.5801 22.6954 23.3754 23.0335 23.0372C23.3768 22.694 23.5815 22.3752 23.7506 21.9372C23.9441 21.4351 24.052 20.8983 24.0887 20.1039C24.1417 18.9795 24.1478 18.5863 24.1478 16.0003C24.1478 13.4805 24.1407 13.069 24.0887 11.8967C24.051 11.1002 23.9441 10.5624 23.7506 10.0654C23.5971 9.64983 23.3524 9.27396 23.0345 8.96539C22.7267 8.64643 22.3506 8.4013 21.9345 8.24835C21.4355 8.05483 20.8997 7.94789 20.1032 7.91122C18.9788 7.85826 18.5857 7.85215 15.9996 7.85215ZM15.9996 5.81511C18.767 5.81511 19.1122 5.82529 20.198 5.87622C21.2827 5.92715 22.0211 6.09724 22.6709 6.34983C23.3432 6.60854 23.9095 6.95891 24.4757 7.52418C24.9937 8.03334 25.3944 8.64923 25.6501 9.329C25.9017 9.97779 26.0728 10.7172 26.1237 11.802C26.1716 12.8877 26.1848 13.233 26.1848 16.0003C26.1848 18.7676 26.1746 19.1129 26.1237 20.1986C26.0728 21.2834 25.9017 22.0218 25.6501 22.6716C25.3951 23.3517 24.9943 23.9678 24.4757 24.4764C23.9664 24.9941 23.3506 25.3949 22.6709 25.6508C22.0221 25.9023 21.2827 26.0734 20.198 26.1244C19.1122 26.1722 18.767 26.1855 15.9996 26.1855C13.2323 26.1855 12.887 26.1753 11.8013 26.1244C10.7166 26.0734 9.97816 25.9023 9.32834 25.6508C8.6483 25.3956 8.0323 24.9948 7.52353 24.4764C7.00552 23.9673 6.60475 23.3514 6.34918 22.6716C6.09658 22.0228 5.92649 21.2834 5.87556 20.1986C5.82769 19.1129 5.81445 18.7676 5.81445 16.0003C5.81445 13.233 5.82464 12.8877 5.87556 11.802C5.92649 10.7162 6.09658 9.97881 6.34918 9.329C6.60405 8.64881 7.0049 8.03275 7.52353 7.52418C8.03245 7.00599 8.64841 6.6052 9.32834 6.34983C9.97816 6.09724 10.7156 5.92715 11.8013 5.87622C12.887 5.82835 13.2323 5.81511 15.9996 5.81511Z" fill="currentColor"></path>
</svg>