
<svg xmlns="http://www.w3.org/2000/svg" width="32" height="32" viewBox="0 0 32 32" fill="none">
<path d="M19.3607 9.43027C18.5866 9.43014 17.8434 9.73391 17.291 10.2762C16.7386 10.8185 16.4212 11.556 16.407 12.33L16.3785 13.9342C16.3769 14.0203 16.357 14.1051 16.3202 14.183C16.2835 14.2609 16.2307 14.3302 16.1653 14.3863C16.0999 14.4423 16.0234 14.4839 15.9408 14.5084C15.8581 14.5328 15.7713 14.5395 15.6859 14.528L14.096 14.312C12.004 14.0268 9.99954 13.0633 8.07658 11.4612C7.4675 14.8325 8.65713 17.168 11.5222 18.9697L13.3016 20.088C13.3861 20.1412 13.4564 20.2142 13.5061 20.3008C13.5559 20.3873 13.5837 20.4848 13.5872 20.5846C13.5906 20.6843 13.5695 20.7835 13.5257 20.8732C13.482 20.963 13.4169 21.0406 13.3362 21.0994L11.7147 22.284C12.6793 22.3441 13.5949 22.3013 14.3547 22.1505C19.1601 21.1911 22.3552 17.5754 22.3552 11.6109C22.3552 11.1241 21.3244 9.43027 19.3607 9.43027ZM14.37 12.2923C14.3878 11.3105 14.6948 10.3558 15.2526 9.54762C15.8104 8.73948 16.5942 8.11385 17.5059 7.74907C18.4176 7.38428 19.4167 7.29655 20.378 7.49686C21.3393 7.69717 22.2202 8.17662 22.9103 8.87518C23.6344 8.87008 24.2507 9.05342 25.6287 8.21823C25.2875 9.8886 25.1194 10.6138 24.3922 11.6109C24.3922 19.3944 19.6082 23.1792 14.754 24.1479C11.4255 24.8119 6.58546 23.7211 5.19824 22.2728C5.90509 22.2178 8.77732 21.9092 10.4375 20.6941C9.03297 19.7682 3.44232 16.4784 7.11611 7.6336C8.84047 9.64721 10.5893 11.0181 12.3615 11.7454C13.5409 12.2292 13.8302 12.219 14.371 12.2933L14.37 12.2923Z" fill="currentColor"></path>
</svg>